<svg id="Group_81" data-name="Group 81" xmlns="http://www.w3.org/2000/svg" width="279.577" height="343.56" viewBox="0 0 279.577 343.56">
  <path id="Path_57" data-name="Path 57" d="M-329.591,489.038s7.744-69.941-64.531-82.848c0,0-3.443-71.415-71.418-66.253,0,0,5.163-38.748-30.115-40.455,0,0,10.326-64.519-57.649-86.03,0,0,23.841-61.952-55.623-67.974v343.56Z" transform="translate(608.927 -145.478)" fill="#7688d1"/>
  <path id="Path_58" data-name="Path 58" d="M-401.513,410.992c51.959,9.279,62.563,48.03,64.418,69.086h-266.28V151.9c63.793,11.468,42.682,66.353,42.682,66.353,67.974,21.509,57.649,86.028,57.649,86.028,35.278,1.707,30.115,40.455,30.115,40.455C-404.954,339.576-401.513,410.992-401.513,410.992Z" transform="translate(603.374 -136.517)" fill="#2a2d71"/>
</svg>
