<svg xmlns="http://www.w3.org/2000/svg" viewBox="0 0 116.75 143.47"><defs><style>.cls-1{fill:#6ca2c0;}.cls-2{fill:#4a6199;}</style></defs><g id="Layer_2" data-name="Layer 2"><g id="Page11"><path class="cls-1" d="M.1,143.47s-3.23-29.21,27-34.6c0,0,1.44-29.82,29.82-27.66,0,0-2.15-16.19,12.58-16.9,0,0-4.31-26.94,24.07-35.92,0,0-10-25.87,23.23-28.39V143.47Z"/><path class="cls-2" d="M32.45,114.62c-21.69,3.87-26.12,20.06-26.9,28.85h111.2V6.42C90.11,11.21,98.93,34.13,98.93,34.13c-28.39,9-24.08,35.93-24.08,35.93C60.12,70.77,62.28,87,62.28,87,33.89,84.8,32.45,114.62,32.45,114.62Z"/></g></g></svg>