<svg xmlns="http://www.w3.org/2000/svg" viewBox="0 0 911.69 725.87"><defs><style>.cls-1{fill:#6ca2c0;}.cls-2{fill:#4a6199;}</style></defs><g id="Layer_2" data-name="Layer 2"><g id="Page11"><path class="cls-1" d="M891.34,725.87s-2.69-33.06-20-41.51-25.72-6.91-25.72-6.91-1.54-19.19-8.07-23.42a85.58,85.58,0,0,0-13.43-6.93s5.75-15-1.92-28.77-16.51-15-16.51-15,7.68-29.94,0-44.53-11.14-22.27-11.14-22.27,1.16-23.8-4.6-34.17-16.51-18.81-16.51-18.81,5.76-34.94,0-56.05-19.2-25.34-19.2-25.34-.77-16.89-4.61-28.41-9.21-17.28-9.21-17.28,7.29-16.12,7.29-26.49a123.48,123.48,0,0,0-1.91-20.35s20.73-16.12,23.41-31.09-2.3-46.84-2.3-46.84,20.35-.39,27.64-7.68a78.73,78.73,0,0,0,12.29-16.89s18.43,3.84,26.49-5.76A52.43,52.43,0,0,0,843.74,181s19.19-7.68,25-20,4.61-27.25,4.61-27.25,26.1-10,18-47.23c0,0,20.35-10.75,20.35-24.18s-6.14-25.73-6.14-25.73,5.76-18,3.84-25.34A21.41,21.41,0,0,0,901.32,0H0V725.87Z"/><path class="cls-2" d="M858.86,701.1c-17.27-8.89-25.72-7.27-25.72-7.27s-1.54-20.2-8.06-24.64a84.79,84.79,0,0,0-13.44-7.3s5.76-15.72-1.92-30.26-16.51-15.76-16.51-15.76,7.68-31.5,0-46.85-11.13-23.43-11.13-23.43,1.15-25-4.61-36S761,489.85,761,489.85s5.76-36.75,0-59-19.19-26.66-19.19-26.66-.77-17.77-4.61-29.89S728,356.16,728,356.16s7.29-17,7.29-27.87a135.58,135.58,0,0,0-1.92-21.41s20.73-17,23.42-32.72-2.3-49.28-2.3-49.28,20.34-.4,27.64-8.07A83.1,83.1,0,0,0,794.36,199s18.43,4,26.49-6.05a56.27,56.27,0,0,0,10.37-21.41s19.2-8.08,25-21,4.6-28.67,4.6-28.67,26.11-10.51,18.05-49.69c0,0,20.35-11.31,20.35-25.44S893,19.7,893,19.7s3.35-11,4.09-19.7H0V725.87H875.21C872.35,716.17,867.39,705.48,858.86,701.1Z"/></g></g></svg>