<svg xmlns="http://www.w3.org/2000/svg" viewBox="0 0 45.82 40.23"><defs><style>.cls-1{fill:#fff;}</style></defs><g id="Layer_2" data-name="Layer 2"><g id="Cover"><path class="cls-1" d="M41.91.3a3.61,3.61,0,0,1,3.61,3.61v24H.3v-24A3.61,3.61,0,0,1,3.91.3h38m0-.3h-38A3.91,3.91,0,0,0,0,3.91V28.19H45.82V3.91A3.91,3.91,0,0,0,41.91,0Z"/><path class="cls-1" d="M20.76,15.24h4.32a7,7,0,0,0,1.54-.5l-.36-1.55a7.79,7.79,0,0,1-3.31.62,3.83,3.83,0,0,1-4.09-4.14h8.38a7.38,7.38,0,0,0,.07-1c0-2.19-1-5.62-4.92-5.62C18.91,3,16.8,5.88,16.8,9.47,16.8,12.4,18.25,14.54,20.76,15.24ZM22.21,4.59c2.44,0,3,2.15,3,3.53H18.89C19.06,6.61,20,4.59,22.21,4.59Z"/><path class="cls-1" d="M15.61,13.51h-7v0c.54-.61,1-1.2,1.53-1.87l5.32-6.92,0-1.36H6.42V5.06h6.46v.05c-.54.64-1,1.21-1.55,1.85l-5.4,7v1.26h9.68Z"/><path class="cls-1" d="M33.11,15.24h4.31a7.05,7.05,0,0,0,1.55-.5l-.37-1.55a7.78,7.78,0,0,1-3.3.62,3.82,3.82,0,0,1-4.09-4.14h8.37a7.06,7.06,0,0,0,.08-1c0-2.19-1-5.62-4.93-5.62-3.47,0-5.59,2.84-5.59,6.43C29.14,12.4,30.59,14.54,33.11,15.24ZM34.56,4.59c2.44,0,3,2.15,3,3.53H31.23C31.4,6.61,32.36,4.59,34.56,4.59Z"/><path class="cls-1" d="M16.1,30.08c-1.66,0-2.5,1.54-2.5,3.25s.91,3.16,2.49,3.16,2.5-1.47,2.5-3.24C18.59,31.7,17.78,30.08,16.1,30.08Z"/><path class="cls-1" d="M34.56,16.79c-2.2,0-3.16,2-3.33,3.52h6.33C37.59,18.93,37,16.79,34.56,16.79Z"/><path class="cls-1" d="M8.56,33.45H7.73v3a4.62,4.62,0,0,0,.84,0c1,0,2-.38,2-1.52S9.66,33.45,8.56,33.45Z"/><path class="cls-1" d="M22.21,16.79c-2.19,0-3.15,2-3.32,3.52h6.33C25.25,18.93,24.65,16.79,22.21,16.79Z"/><path class="cls-1" d="M0,15.24V36.33a3.9,3.9,0,0,0,3.91,3.9h38a3.9,3.9,0,0,0,3.91-3.9V15.24Zm22.39,0c3.89,0,4.92,3.42,4.92,5.62a7.51,7.51,0,0,1-.07,1H18.86A3.83,3.83,0,0,0,23,26a8,8,0,0,0,3.31-.62l.36,1.55a9.51,9.51,0,0,1-4,.74c-3.67,0-5.86-2.41-5.86-6S18.91,15.24,22.39,15.24ZM5.93,26.18l5.4-7c.51-.64,1-1.21,1.55-1.85v0H6.42V15.51h9.09l0,1.36-5.32,6.92c-.49.66-1,1.25-1.53,1.87v.05h7v1.72H5.93ZM11,36.53a4,4,0,0,1-2.7.72,11.31,11.31,0,0,1-1.56-.09V29.49a10,10,0,0,1,1.84-.16,3.19,3.19,0,0,1,2.14.57,1.64,1.64,0,0,1,.65,1.37A1.86,1.86,0,0,1,10,33v0a2,2,0,0,1,1.61,2A2.15,2.15,0,0,1,11,36.53Zm5.05.78c-2.06,0-3.5-1.59-3.5-4s1.54-4.1,3.62-4.1,3.5,1.63,3.5,3.95C19.65,35.89,18,37.31,16,37.31Zm8,0c-2.06,0-3.5-1.59-3.5-4s1.53-4.1,3.62-4.1,3.5,1.63,3.5,3.95C27.62,35.89,26,37.31,24,37.31Zm9.24-.13-2.57-3.82-.74.85v3h-1V29.39h1v3.76h0c.21-.3.42-.58.61-.84L33,29.39h1.25L31.39,32.7l3,4.48Zm3.55.12a4,4,0,0,1-2-.5l.26-.84a3.53,3.53,0,0,0,1.8.51c1,0,1.63-.55,1.63-1.33S38.08,34,37,33.59C35.75,33.14,35,32.48,35,31.38a2.24,2.24,0,0,1,2.52-2.12,3.61,3.61,0,0,1,1.72.38l-.28.82a3.18,3.18,0,0,0-1.48-.37c-1.06,0-1.47.64-1.47,1.17,0,.73.48,1.09,1.55,1.51,1.32.5,2,1.14,2,2.29S38.63,37.3,36.79,37.3Zm2.79-15.43H31.21A3.82,3.82,0,0,0,35.3,26a7.93,7.93,0,0,0,3.3-.62L39,26.94a9.6,9.6,0,0,1-4,.74c-3.67,0-5.86-2.41-5.86-6s2.12-6.43,5.59-6.43c3.89,0,4.93,3.42,4.93,5.62A7.2,7.2,0,0,1,39.58,21.87Z"/><path class="cls-1" d="M10.33,31.38c0-.92-.69-1.27-1.71-1.27a5,5,0,0,0-.89.06v2.51h.91C9.71,32.68,10.33,32.13,10.33,31.38Z"/><path class="cls-1" d="M24.07,30.08c-1.67,0-2.5,1.54-2.5,3.25s.9,3.16,2.49,3.16,2.5-1.47,2.5-3.24C26.56,31.7,25.75,30.08,24.07,30.08Z"/></g></g></svg>